<svg width="36" height="25" viewBox="0 0 36 25" fill="none" xmlns="http://www.w3.org/2000/svg">
<g clip-path="url(#clip0_17218_19378)">
<path d="M19.0235 11.3753C19.1163 11.3887 19.2357 11.4089 19.3419 11.4157C20.914 11.5032 23.2689 11.382 23.6536 8.6813C23.6934 8.25027 23.7067 7.8125 23.6934 7.37473V0.195312H21.0865V7.28718C21.0865 7.3882 21.0865 7.91352 21.0533 8.29741C20.8875 9.54337 20.1047 10.6142 18.9837 11.1395C18.9173 11.1598 18.8841 11.2271 18.8974 11.2945C18.9107 11.3483 18.9571 11.382 19.0102 11.382" fill="white"/>
<path d="M35.8741 11.5575H26.5805C23.1245 11.5575 20.889 13.4635 20.7762 16.2315C20.7099 17.9153 20.8028 18.7167 21.3865 18.7167C21.8111 18.7167 22.1096 17.9759 22.2091 17.6661C22.7796 15.9622 24.7829 14.3121 27.7746 14.3121H33.1875C34.5341 14.3121 35.6286 12.4263 35.9669 11.773C36.0399 11.6383 36.0067 11.5508 35.8807 11.5508" fill="white"/>
<path d="M13.7894 17.672C13.8956 17.9818 14.1874 18.7227 14.612 18.7227C15.1957 18.7227 15.2886 17.9212 15.2223 16.2375C15.1161 13.4695 12.8806 11.5635 9.41795 11.5635H0.124417C-0.00161958 11.5635 -0.0347871 11.6443 0.0381814 11.7857C0.37649 12.439 1.46438 14.3248 2.81762 14.3248H8.22392C11.2156 14.3248 13.2123 15.9816 13.7894 17.6788" fill="white"/>
<path d="M32.4633 15.8203H28.4566C23.9193 15.8203 23.7336 18.3863 22.7187 19.7939C20.45 22.4407 16.4964 22.7169 13.8895 20.4135C13.6706 20.2249 13.4716 20.0162 13.2792 19.7939C12.2643 18.3796 12.0852 15.8203 7.54121 15.8203H3.53457C3.40854 15.8203 3.37537 15.9011 3.44834 16.0426C3.78665 16.6959 5.03374 18.7837 6.38034 18.7837H8.24436C9.25265 18.7837 9.48482 19.4841 9.96907 20.3058C11.3953 23.1008 14.2079 25 17.9956 25C21.7833 25 24.5959 23.1008 26.0221 20.3058C26.5064 19.4841 26.7386 18.7837 27.7468 18.7837H29.6109C30.9575 18.7837 32.2046 16.6959 32.5429 16.0426C32.6158 15.9011 32.5827 15.8203 32.4566 15.8203" fill="white"/>
<path d="M14.4026 6.08788C15.1057 6.38421 16.9366 6.89607 16.9366 7.8659C16.9366 8.62694 16.2334 8.88287 15.0659 8.88287C14.177 8.81552 13.3014 8.62694 12.459 8.31713V10.0278C13.3412 10.4319 14.3097 10.6272 15.2782 10.5935C18.6812 10.5935 19.6629 8.93001 19.6629 7.11832C19.6629 5.40765 17.779 4.56579 17.1488 4.34354C16.512 4.12128 14.7807 3.67678 14.7807 2.72716C14.7807 1.96611 15.5502 1.60243 16.5651 1.60243C17.3877 1.67651 18.1903 1.89876 18.9333 2.26245V0.545044C18.124 0.167888 17.2417 -0.0206891 16.3528 -0.000484355C14.0245 -0.000484355 12.0742 0.908729 12.0742 3.11778C12.0742 5.10458 13.6928 5.79828 14.4026 6.09461" fill="white"/>
</g>
<defs>
<clipPath id="clip0_17218_19378">
<rect width="36" height="25" fill="white"/>
</clipPath>
</defs>
</svg>
