<svg width="952" height="118" viewBox="0 0 952 118" fill="none" xmlns="http://www.w3.org/2000/svg">
<path d="M136 2.40796L111.841 116.741L71.4277 54.9361L0 116.744L24.159 2.40796H49.9571L39.8175 49.8505L77.0978 16.7766L99.766 52.8437L110.35 2.40796H136Z" fill="#F6F578"/>
<path d="M196.924 31.3535L183.873 91.9698C180.534 107.497 168.545 117.947 152.764 117.947C138.803 117.947 127.574 105.255 127.574 91.6702C127.574 90.0274 127.728 88.2363 128.18 86.4452L141.231 25.8289C144.419 10.4502 156.405 6.10352e-05 172.188 6.10352e-05C186.15 6.10352e-05 197.379 12.6921 197.379 26.2767C197.379 27.9196 197.228 29.7106 196.924 31.3535ZM169.914 24.3343C168.702 24.3343 167.332 25.8258 166.88 27.7682L153.374 90.1756V91.2225C153.374 92.5658 153.98 93.6127 155.045 93.6127C156.257 93.6127 157.774 92.1211 158.079 90.1787L171.585 27.7713C171.585 27.4718 171.736 27.024 171.736 26.7245C171.736 25.3811 170.976 24.3343 169.914 24.3343V24.3343Z" fill="#F6F578"/>
<path d="M269.59 2.40796L245.671 116.744L230.758 54.9344L190.157 116.744L214.076 2.40796H239.471L233.713 29.945H233.86L238.881 16.777L238.291 29.945H238.438L244.195 2.40796H269.587H269.59Z" fill="#F6F578"/>
<path d="M513.908 114.336L484.864 17.6482C479.093 -0.0888077 455.386 -4.60958 443.174 9.68475L408.546 50.1971C403.708 55.8358 396.826 58.6781 389.945 58.6781C383.064 58.6781 376.183 55.8358 371.344 50.1971L336.717 9.68475C324.508 -4.60958 300.8 -0.0888077 295.027 17.6482L265.982 114.336H513.911H513.908Z" fill="#F6F578"/>
<path d="M579.393 91.8235C579.393 90.2001 579.246 88.429 578.95 86.6579L566.258 26.7366C563.011 11.5349 551.352 1.20361 536.003 1.20361C522.426 1.20361 511.504 13.7487 511.504 27.1794C511.504 28.8028 511.652 30.5739 512.095 32.1974L524.787 92.1187C527.886 107.468 539.545 117.799 554.894 117.799C568.472 117.799 579.393 105.254 579.393 91.8235ZM554.451 91.3808C554.451 92.7091 553.713 93.7422 552.68 93.7422C551.5 93.7422 550.171 92.2663 549.729 90.3477L536.594 28.6553C536.594 28.3601 536.594 27.9173 536.594 27.6221C536.594 26.2938 537.184 25.2607 538.217 25.2607C539.398 25.2607 540.874 26.7366 541.169 28.6553L554.304 90.3477C554.304 90.6428 554.451 91.0856 554.451 91.3808Z" fill="#F6F578"/>
<path d="M625.344 2.08915L610.438 63.0436L569.852 2.08915L593.761 114.848H619.145L613.389 87.691H613.537L618.555 100.679L617.965 87.691H618.112L623.868 114.848H649.252L625.344 2.08915Z" fill="#F6F578"/>
<path d="M760.651 67.6189C760.651 31.7546 728.33 2.23674 692.762 2.23674C664.721 2.23674 642.583 25.4083 642.583 52.5648C642.583 88.5766 674.904 117.947 710.325 117.947C728.625 117.947 744.417 108.206 753.272 93.7422L734.086 78.0977C728.035 87.3959 720.508 93.7422 708.701 93.7422C694.386 93.7422 680.808 84.2965 673.576 71.7514H760.503C760.651 70.4231 760.651 69.0948 760.651 67.6189ZM668.853 47.2515C671.215 35.0016 681.103 26.4414 694.386 26.4414C708.258 26.4414 721.393 35.2968 728.773 47.2515H668.853Z" fill="#F6F578"/>
<path d="M809.704 4.1554H784.32L792.584 42.6763L753.917 2.08915L777.826 114.848H803.358L795.093 76.6218L833.613 116.914L809.704 4.1554Z" fill="#F6F578"/>
<path d="M864.276 28.3601H879.182L874.164 4.1554H818.82L823.838 28.3601H838.744L857.192 114.848H882.724L864.276 28.3601Z" fill="#F6F578"/>
<path d="M952 92.1187C952 53.5979 909.938 47.9895 909.938 28.6553C909.938 26.7366 910.676 25.2607 911.266 25.2607C912.299 25.2607 913.775 23.4896 915.399 35.592H940.636C937.832 10.059 923.073 1.20361 908.757 1.20361C895.918 1.20361 884.258 10.6493 884.258 25.9986C884.258 64.3719 926.32 67.7665 926.32 90.2001C926.32 92.2663 925.73 93.7422 925.139 93.7422C923.663 93.7422 921.302 92.5615 920.121 81.0495H894.885C899.312 109.977 913.333 117.799 927.943 117.799C940.636 117.799 952 108.206 952 92.1187Z" fill="#F6F578"/>
</svg>
