<svg width="1440" height="790" viewBox="0 0 1440 790" fill="none" xmlns="http://www.w3.org/2000/svg">
<mask id="mask0_17221_18843" style="mask-type:alpha" maskUnits="userSpaceOnUse" x="-1" y="0" width="1442" height="790">
<rect x="-1" width="1442" height="790" fill="#C4C4C4"/>
</mask>
<g mask="url(#mask0_17221_18843)">
<path d="M66.3548 -91.9526L25.4345 100.246L-43.0169 -3.65042L-164 100.252L-123.08 -91.9526H-79.3835L-96.5578 -12.1997L-33.4129 -67.7983L4.98221 -7.16794L22.9093 -91.9526H66.3548Z" fill="#F6F578"/>
<path d="M169.155 -44.1541L147.433 57.9841C141.875 84.1469 121.919 101.755 95.6535 101.755C72.4147 101.755 53.7242 80.3692 53.7242 57.4793C53.7242 54.7111 53.9804 51.6931 54.7333 48.6751L76.456 -53.463C81.7625 -79.3761 101.713 -96.9845 127.984 -96.9845C151.223 -96.9845 169.913 -75.5984 169.913 -52.7085C169.913 -49.9403 169.662 -46.9223 169.155 -44.1541ZM124.199 -55.9815C122.181 -55.9815 119.901 -53.4682 119.149 -50.1953L96.6678 54.9609V56.7248C96.6678 58.9883 97.6768 60.7523 99.4491 60.7523C101.467 60.7523 103.992 58.239 104.499 54.9661L126.98 -50.19C126.98 -50.6948 127.231 -51.4493 127.231 -51.954C127.231 -54.2175 125.966 -55.9815 124.199 -55.9815Z" fill="#F6F578"/>
<path d="M293.165 -91.9526L252.245 100.246L226.731 -3.65562L157.271 100.246L198.191 -91.9526H241.637L231.787 -45.6629H232.038L240.628 -67.7983L239.619 -45.6629H239.87L249.719 -91.9526H293.16H293.165Z" fill="#F6F578"/>
<path d="M835.046 -44.1696L813.323 57.9686C807.761 84.1314 787.81 101.74 761.544 101.74C738.305 101.74 719.615 80.3537 719.615 57.4638C719.615 54.6956 719.866 51.6776 720.624 48.6596L742.347 -53.4785C747.653 -79.3864 767.609 -97 793.875 -97C817.114 -97 835.804 -75.6139 835.804 -52.724C835.804 -49.9558 835.553 -46.9378 835.046 -44.1696ZM790.09 -55.997C788.072 -55.997 785.792 -53.4837 785.039 -50.2108L762.559 54.9454V56.7093C762.559 58.9728 763.568 60.7368 765.34 60.7368C767.358 60.7368 769.883 58.2235 770.39 54.9506L792.871 -50.2055C792.871 -50.7103 793.122 -51.4648 793.122 -51.9695C793.122 -54.233 791.857 -55.997 790.09 -55.997Z" fill="#F6F578"/>
<path d="M959.062 -95.486L918.141 96.7132H874.696L884.802 50.4234H884.546L875.705 72.5588L876.97 50.4234H876.714L866.613 96.7132H823.168L864.088 -95.486L889.601 8.41614L959.062 -95.486Z" fill="#F6F578"/>
<path d="M1150.51 23.2565H998.711C1001.74 45.3919 1019.17 60.742 1042.66 60.742C1064.13 60.742 1083.07 48.4151 1097.73 33.8195L1123.49 66.2733C1102.02 88.1641 1071.71 102 1039.88 102C991.894 102 954.006 62.7505 954.006 16.2111C954.006 -44.9188 1008.06 -95.2412 1068.68 -95.2412C1116.92 -95.2412 1156.07 -55.742 1156.07 -9.45226C1156.07 1.8704 1154.05 12.9381 1150.51 23.2513L1150.51 23.2565ZM1110.86 -18.501C1107.07 -39.3772 1090.15 -53.9728 1067.16 -53.9728C1044.17 -53.9728 1020.94 -38.8777 1008.31 -18.501H1110.86Z" fill="#F6F578"/>
<path d="M1285.64 -91.9684L1244.72 100.231L1209.62 24.5051L1194.21 96.7079H1150.77L1191.69 -95.486L1226.79 -19.2609L1242.2 -91.9632H1285.64L1285.64 -91.9684Z" fill="#F6F578"/>
<path d="M1392.49 -91.9683L1383.9 -50.7103H1358.38L1326.81 96.7133H1283.11L1314.68 -50.7103H1289.17L1297.76 -91.9683H1392.48H1392.49Z" fill="#F6F578"/>
<path d="M1478.86 -38.3834H1437.7C1438.21 -40.1473 1439.97 -45.6786 1439.97 -48.6966C1439.97 -52.469 1437.7 -55.9918 1436.18 -55.9918C1432.65 -55.9918 1428.35 -47.4373 1428.35 -42.4056C1428.35 -17.7518 1464.47 -2.90636 1464.47 36.8374C1464.47 79.0997 1435.42 101.74 1409.4 101.74C1387.94 101.74 1368.48 86.6447 1368.48 53.9411C1368.48 49.1644 1370 40.8545 1370.26 38.846H1411.42C1411.17 41.1095 1409.4 47.9051 1409.4 51.9326C1409.4 56.4596 1411.42 60.7368 1413.95 60.7368C1416.22 60.7368 1421.52 50.9283 1421.52 44.3824C1421.52 21.2375 1385.41 4.38364 1385.41 -34.8606C1385.41 -74.1049 1413.7 -97 1439.46 -97C1461.18 -97 1480.88 -82.1598 1480.88 -49.9558C1480.88 -47.6923 1479.37 -40.3971 1478.86 -38.3834Z" fill="#F6F578"/>
<path d="M701.907 96.7132L652.544 -67.5487C642.736 -97.6818 602.443 -105.362 581.687 -81.0776L522.835 -12.2518C514.611 -2.67232 502.916 2.15646 491.221 2.15646C479.525 2.15646 467.83 -2.67232 459.606 -12.2518L400.754 -81.0776C380.003 -105.362 339.711 -97.6818 329.897 -67.5487L280.534 96.7132H701.913H701.907Z" fill="#F6F578"/>
<path d="M395.355 154.047L354.434 346.246L285.983 242.35L165 346.252L205.92 154.047H249.617L232.442 233.8L295.587 178.202L333.982 238.832L351.909 154.047H395.355Z" fill="#F6F578"/>
<path d="M498.155 201.846L476.433 303.984C470.875 330.147 450.919 347.755 424.654 347.755C401.415 347.755 382.724 326.369 382.724 303.479C382.724 300.711 382.98 297.693 383.733 294.675L405.456 192.537C410.762 166.624 430.713 149.016 456.984 149.016C480.223 149.016 498.913 170.402 498.913 193.291C498.913 196.06 498.662 199.078 498.155 201.846ZM453.199 190.019C451.181 190.019 448.901 192.532 448.149 195.805L425.668 300.961V302.725C425.668 304.988 426.677 306.752 428.449 306.752C430.467 306.752 432.992 304.239 433.499 300.966L455.98 195.81C455.98 195.305 456.231 194.551 456.231 194.046C456.231 191.783 454.966 190.019 453.199 190.019Z" fill="#F6F578"/>
<path d="M622.165 154.047L581.245 346.246L555.731 242.344L486.271 346.246L527.191 154.047H570.637L560.787 200.337H561.038L569.628 178.202L568.619 200.337H568.87L578.719 154.047H622.16H622.165Z" fill="#F6F578"/>
<path d="M1164.05 201.83L1142.32 303.969C1136.76 330.131 1116.81 347.74 1090.54 347.74C1067.31 347.74 1048.61 326.354 1048.61 303.464C1048.61 300.696 1048.87 297.678 1049.62 294.66L1071.35 192.521C1076.65 166.614 1096.61 149 1122.87 149C1146.11 149 1164.8 170.386 1164.8 193.276C1164.8 196.044 1164.55 199.062 1164.05 201.83ZM1119.09 190.003C1117.07 190.003 1114.79 192.516 1114.04 195.789L1091.56 300.945V302.709C1091.56 304.973 1092.57 306.737 1094.34 306.737C1096.36 306.737 1098.88 304.224 1099.39 300.951L1121.87 195.794C1121.87 195.29 1122.12 194.535 1122.12 194.03C1122.12 191.767 1120.86 190.003 1119.09 190.003Z" fill="#F6F578"/>
<path d="M1288.06 150.514L1247.14 342.713H1203.7L1213.8 296.423H1213.55L1204.71 318.559L1205.97 296.423H1205.71L1195.61 342.713H1152.17L1193.09 150.514L1218.6 254.416L1288.06 150.514Z" fill="#F6F578"/>
<path d="M1479.51 269.257H1327.71C1330.74 291.392 1348.17 306.742 1371.66 306.742C1393.13 306.742 1412.07 294.415 1426.73 279.819L1452.49 312.273C1431.02 334.164 1400.71 348 1368.88 348C1320.89 348 1283.01 308.751 1283.01 262.211C1283.01 201.081 1337.06 150.759 1397.68 150.759C1445.92 150.759 1485.07 190.258 1485.07 236.548C1485.07 247.87 1483.05 258.938 1479.51 269.251L1479.51 269.257ZM1439.86 227.499C1436.07 206.623 1419.15 192.027 1396.16 192.027C1373.17 192.027 1349.94 207.122 1337.31 227.499H1439.86Z" fill="#F6F578"/>
<path d="M1030.91 342.713L981.544 178.451C971.736 148.318 931.443 140.638 910.687 164.922L851.835 233.748C843.611 243.328 831.916 248.156 820.221 248.156C808.525 248.156 796.83 243.328 788.606 233.748L729.754 164.922C709.003 140.638 668.711 148.318 658.897 178.451L609.534 342.713H1030.91H1030.91Z" fill="#F6F578"/>
<path d="M20.046 447.83L-1.67673 549.969C-7.23943 576.131 -27.1898 593.74 -53.4558 593.74C-76.6946 593.74 -95.385 572.354 -95.385 549.464C-95.385 546.696 -95.134 543.678 -94.376 540.66L-72.6533 438.521C-67.3468 412.614 -47.3911 395 -21.1252 395C2.11366 395 20.804 416.386 20.804 439.276C20.804 442.044 20.5531 445.062 20.046 447.83ZM-24.9103 436.003C-26.9284 436.003 -29.2078 438.516 -29.9607 441.789L-52.4415 546.945V548.709C-52.4415 550.973 -51.4325 552.737 -49.6602 552.737C-47.6421 552.737 -45.1169 550.224 -44.6098 546.951L-22.129 441.794C-22.129 441.29 -21.8781 440.535 -21.8781 440.03C-21.8781 437.767 -23.1432 436.003 -24.9103 436.003Z" fill="#F6F578"/>
<path d="M144.062 396.514L103.141 588.713H59.6959L69.8018 542.423H69.5456L60.7049 564.559L61.9701 542.423H61.714L51.6133 588.713H8.16785L49.0881 396.514L74.6012 500.416L144.062 396.514Z" fill="#F6F578"/>
<path d="M335.514 515.257H183.711C186.744 537.392 204.174 552.742 227.659 552.742C249.125 552.742 268.072 540.415 282.726 525.819L308.49 558.273C287.018 580.164 256.711 594 224.883 594C176.894 594 139.006 554.751 139.006 508.211C139.006 447.081 193.059 396.759 253.679 396.759C301.924 396.759 341.072 436.258 341.072 482.548C341.072 493.87 339.054 504.938 335.509 515.251L335.514 515.257ZM295.859 473.499C292.069 452.623 275.145 438.027 252.158 438.027C229.17 438.027 205.936 453.122 193.31 473.499H295.859Z" fill="#F6F578"/>
<path d="M470.644 400.031L429.724 592.231L394.618 516.505L379.21 588.708H335.765L376.685 396.514L411.792 472.739L427.199 400.037H470.639L470.644 400.031Z" fill="#F6F578"/>
<path d="M577.486 400.032L568.896 441.29H543.383L511.811 588.713H468.109L499.681 441.29H474.168L482.758 400.032H577.48H577.486Z" fill="#F6F578"/>
<path d="M663.864 453.617H622.699C623.206 451.853 624.973 446.321 624.973 443.303C624.973 439.531 622.699 436.008 621.182 436.008C617.648 436.008 613.351 444.563 613.351 449.594C613.351 474.248 649.466 489.094 649.466 528.837C649.466 571.1 620.419 593.74 594.404 593.74C572.938 593.74 553.484 578.645 553.484 545.941C553.484 541.164 555 532.854 555.256 530.846H596.422C596.171 533.109 594.404 539.905 594.404 543.933C594.404 548.46 596.422 552.737 598.947 552.737C601.222 552.737 606.523 542.928 606.523 536.382C606.523 513.238 570.407 496.384 570.407 457.139C570.407 417.895 598.696 395 624.46 395C646.183 395 665.883 409.84 665.883 442.044C665.883 444.308 664.366 451.603 663.864 453.617Z" fill="#F6F578"/>
<path d="M88.3548 646.047L47.4345 838.247L-21.0169 734.35L-142 838.252L-101.08 646.047H-57.3835L-74.5578 725.8L-11.4129 670.202L26.9822 730.832L44.9093 646.047H88.3548Z" fill="#F6F578"/>
<path d="M191.155 693.846L169.433 795.984C163.875 822.147 143.919 839.755 117.654 839.755C94.4147 839.755 75.7242 818.369 75.7242 795.479C75.7242 792.711 75.9804 789.693 76.7333 786.675L98.456 684.537C103.762 658.624 123.713 641.016 149.984 641.016C173.223 641.016 191.913 662.402 191.913 685.291C191.913 688.06 191.662 691.078 191.155 693.846ZM146.199 682.019C144.181 682.019 141.901 684.532 141.149 687.805L118.668 792.961V794.725C118.668 796.988 119.677 798.752 121.449 798.752C123.467 798.752 125.992 796.239 126.499 792.966L148.98 687.81C148.98 687.305 149.231 686.551 149.231 686.046C149.231 683.783 147.966 682.019 146.199 682.019Z" fill="#F6F578"/>
<path d="M315.165 646.047L274.245 838.247L248.731 734.344L179.271 838.247L220.191 646.047H263.637L253.787 692.337H254.038L262.628 670.202L261.619 692.337H261.87L271.719 646.047H315.16H315.165Z" fill="#F6F578"/>
<path d="M857.046 693.83L835.323 795.969C829.761 822.131 809.81 839.74 783.544 839.74C760.305 839.74 741.615 818.354 741.615 795.464C741.615 792.696 741.866 789.678 742.624 786.66L764.347 684.521C769.653 658.614 789.609 641 815.875 641C839.114 641 857.804 662.386 857.804 685.276C857.804 688.044 857.553 691.062 857.046 693.83ZM812.09 682.003C810.072 682.003 807.792 684.516 807.039 687.789L784.559 792.945V794.709C784.559 796.973 785.568 798.737 787.34 798.737C789.358 798.737 791.883 796.224 792.39 792.951L814.871 687.794C814.871 687.29 815.122 686.535 815.122 686.03C815.122 683.767 813.857 682.003 812.09 682.003Z" fill="#F6F578"/>
<path d="M981.062 642.514L940.141 834.713H896.696L906.802 788.423H906.546L897.705 810.559L898.97 788.423H898.714L888.613 834.713H845.168L886.088 642.514L911.601 746.416L981.062 642.514Z" fill="#F6F578"/>
<path d="M1172.51 761.257H1020.71C1023.74 783.392 1041.17 798.742 1064.66 798.742C1086.13 798.742 1105.07 786.415 1119.73 771.819L1145.49 804.273C1124.02 826.164 1093.71 840 1061.88 840C1013.89 840 976.006 800.751 976.006 754.211C976.006 693.081 1030.06 642.759 1090.68 642.759C1138.92 642.759 1178.07 682.258 1178.07 728.548C1178.07 739.87 1176.05 750.938 1172.51 761.251L1172.51 761.257ZM1132.86 719.499C1129.07 698.623 1112.15 684.027 1089.16 684.027C1066.17 684.027 1042.94 699.122 1030.31 719.499H1132.86Z" fill="#F6F578"/>
<path d="M1307.64 646.031L1266.72 838.231L1231.62 762.505L1216.21 834.708H1172.77L1213.69 642.514L1248.79 718.739L1264.2 646.037H1307.64L1307.64 646.031Z" fill="#F6F578"/>
<path d="M1414.49 646.032L1405.9 687.29H1380.38L1348.81 834.713H1305.11L1336.68 687.29H1311.17L1319.76 646.032H1414.48H1414.49Z" fill="#F6F578"/>
<path d="M1500.86 699.617H1459.7C1460.21 697.853 1461.97 692.321 1461.97 689.303C1461.97 685.531 1459.7 682.008 1458.18 682.008C1454.65 682.008 1450.35 690.563 1450.35 695.594C1450.35 720.248 1486.47 735.094 1486.47 774.837C1486.47 817.1 1457.42 839.74 1431.4 839.74C1409.94 839.74 1390.48 824.645 1390.48 791.941C1390.48 787.164 1392 778.854 1392.26 776.846H1433.42C1433.17 779.109 1431.4 785.905 1431.4 789.933C1431.4 794.46 1433.42 798.737 1435.95 798.737C1438.22 798.737 1443.52 788.928 1443.52 782.382C1443.52 759.238 1407.41 742.384 1407.41 703.139C1407.41 663.895 1435.7 641 1461.46 641C1483.18 641 1502.88 655.84 1502.88 688.044C1502.88 690.308 1501.37 697.603 1500.86 699.617Z" fill="#F6F578"/>
<path d="M723.907 834.713L674.544 670.451C664.736 640.318 624.443 632.638 603.687 656.922L544.835 725.748C536.611 735.328 524.916 740.156 513.221 740.156C501.525 740.156 489.83 735.328 481.606 725.748L422.754 656.922C402.003 632.638 361.711 640.318 351.897 670.451L302.534 834.713H723.913H723.907Z" fill="#F6F578"/>
</g>
</svg>
