<svg width="247" height="67" viewBox="0 0 247 67" fill="none" xmlns="http://www.w3.org/2000/svg">
<path d="M246.101 38.9744C246.536 31.9263 245.066 26.284 241.799 22.6554C240.184 20.9763 238.248 19.6746 236.117 18.8363C233.986 17.998 231.71 17.6421 229.438 17.792C219.002 17.792 211.977 25.1251 211.977 36.0107C211.977 46.8964 218.929 54.0395 229.693 54.0395C232.401 54.1481 235.1 53.6443 237.606 52.5625C240.112 51.4806 242.365 49.8461 244.213 47.7703L239.076 42.3179C237.966 43.511 236.64 44.4613 235.175 45.1135C233.711 45.7658 232.137 46.107 230.546 46.1175C228.588 46.1826 226.668 45.5483 225.101 44.3191C223.534 43.0898 222.414 41.3389 221.924 39.3543V39.0694H246.192L246.101 38.9744ZM221.615 32.9521V32.6862C221.81 30.6558 222.722 28.7746 224.172 27.4112C225.622 26.0477 227.507 25.3002 229.457 25.3151C230.417 25.2607 231.378 25.4123 232.28 25.7605C233.182 26.1086 234.007 26.6461 234.704 27.3399C235.401 28.0336 235.955 28.869 236.332 29.7949C236.71 30.7208 236.902 31.7176 236.898 32.7242V32.9521H221.615Z" fill="#F6F578"/>
<path d="M167.306 28.1652C168.355 28.1545 169.402 28.2628 170.428 28.4881V18.0205C169.589 17.8135 168.73 17.7115 167.869 17.7165C166.098 17.6305 164.339 18.0632 162.791 18.966C161.242 19.8688 159.964 21.2058 159.102 22.8268L158.703 23.7197V18.0205H148.919V53.7359H159.048V38.1959C159.048 29.153 164.819 28.1652 167.306 28.1652Z" fill="#F6F578"/>
<path d="M184.029 18.0794H173.9V53.7379H184.029V18.0794Z" fill="#F6F578"/>
<path d="M178.844 0.583779C177.319 0.671848 175.885 1.36774 174.836 2.52843C173.786 3.68913 173.201 5.22646 173.201 6.82449C173.201 8.42252 173.786 9.95985 174.836 11.1205C175.885 12.2812 177.319 12.9771 178.844 13.0652C179.655 13.112 180.466 12.9853 181.228 12.6929C181.99 12.4004 182.688 11.9483 183.278 11.3642C183.867 10.7801 184.337 10.0763 184.658 9.29571C184.979 8.51516 185.145 7.67428 185.145 6.82449C185.145 5.97469 184.979 5.13382 184.658 4.35327C184.337 3.57271 183.867 2.86888 183.278 2.28477C182.688 1.70067 181.99 1.24857 181.228 0.956101C180.466 0.663634 179.655 0.536946 178.844 0.583779Z" fill="#F6F578"/>
<path d="M204.683 54.382C206.486 54.464 208.286 54.1468 209.965 53.4511V44.7122C209.124 44.9071 208.266 45.009 207.405 45.0162C205.59 45.0162 203.376 44.5603 203.376 41.0267V27.2914H210.11V18.0776H203.376V7.55294H194.301V11.9794C194.381 12.7764 194.294 13.5821 194.048 14.3407C193.801 15.0994 193.399 15.7927 192.871 16.3728C192.343 16.9529 191.7 17.4058 190.988 17.7002C190.276 17.9945 189.511 18.1233 188.746 18.0776H187.222V27.2914H193.339V42.9835C193.339 50.0126 197.713 54.382 204.683 54.382Z" fill="#F6F578"/>
<path d="M128.664 54.0438C133.256 54.0438 137.661 52.1343 140.908 48.7355C144.155 45.3366 145.98 40.7268 145.98 35.9201C145.98 31.1134 144.155 26.5035 140.908 23.1047C137.661 19.7058 133.256 17.7964 128.664 17.7964C119.752 17.7964 112.782 25.1104 111.348 35.9961C110.822 39.9476 107.718 44.203 103.434 44.203C101.335 44.203 99.3224 43.3304 97.8383 41.777C96.3542 40.2236 95.5204 38.1169 95.5204 35.9201C95.5204 33.7233 96.3542 31.6165 97.8383 30.0631C99.3224 28.5098 101.335 27.6371 103.434 27.6371C104.894 27.6551 106.323 28.0814 107.573 28.872C108.516 25.7075 110.108 22.7965 112.237 20.342C109.442 18.6417 106.247 17.7962 103.016 17.9017C99.7844 18.0072 96.6461 19.0594 93.9576 20.9387C91.2691 22.818 89.1382 25.4491 87.8072 28.5328C86.4762 31.6166 85.9985 35.0293 86.4283 38.3831C86.8581 41.7368 88.1782 44.8971 90.2386 47.5047C92.299 50.1123 95.017 52.0626 98.0837 53.134C101.15 54.2053 104.443 54.3547 107.586 53.5651C110.73 52.7755 113.599 51.0787 115.867 48.6675L116.158 48.3635L116.448 48.6675C118.044 50.3642 119.945 51.7129 122.042 52.6358C124.138 53.5586 126.389 54.0372 128.664 54.0438ZM128.664 27.6371C130.229 27.6371 131.759 28.1229 133.06 29.033C134.362 29.9432 135.376 31.2368 135.975 32.7503C136.574 34.2638 136.731 35.9293 136.425 37.536C136.12 39.1427 135.366 40.6186 134.26 41.777C133.153 42.9354 131.743 43.7243 130.208 44.0439C128.672 44.3635 127.081 44.1994 125.635 43.5725C124.189 42.9456 122.953 41.8839 122.084 40.5218C121.214 39.1597 120.75 37.5583 120.75 35.9201C120.75 33.7233 121.584 31.6165 123.068 30.0631C124.552 28.5098 126.565 27.6371 128.664 27.6371Z" fill="#F6F578"/>
<path d="M18.3592 19.2634C21.5228 19.2634 24.3871 19.9902 26.9522 21.4437C29.5172 22.8545 31.5265 24.8638 32.98 27.4716C34.4336 30.0794 35.1603 33.0506 35.1603 36.3852C35.1603 39.7198 34.4336 42.691 32.98 45.2988C31.5265 47.9066 29.5172 49.9372 26.9522 51.3908C24.3871 52.8443 21.5228 53.5711 18.3592 53.5711C15.5377 53.5711 12.994 52.9726 10.7282 51.7755C8.50512 50.5785 6.70958 48.8471 5.34155 46.5813V53.2504H0.980957V5.66864H5.53393V25.9326C6.94471 23.7523 8.74025 22.1064 10.9206 20.9949C13.1436 19.8406 15.6232 19.2634 18.3592 19.2634ZM18.0386 49.5311C20.3899 49.5311 22.5274 48.9967 24.4512 47.928C26.375 46.8164 27.8713 45.256 28.9401 43.2467C30.0516 41.2374 30.6074 38.9503 30.6074 36.3852C30.6074 33.8201 30.0516 31.533 28.9401 29.5237C27.8713 27.5144 26.375 25.9753 24.4512 24.9066C22.5274 23.795 20.3899 23.2393 18.0386 23.2393C15.6445 23.2393 13.4856 23.795 11.5618 24.9066C9.68077 25.9753 8.18449 27.5144 7.07297 29.5237C6.00419 31.533 5.46981 33.8201 5.46981 36.3852C5.46981 38.9503 6.00419 41.2374 7.07297 43.2467C8.18449 45.256 9.68077 46.8164 11.5618 47.928C13.4856 48.9967 15.6445 49.5311 18.0386 49.5311Z" fill="#F6F578"/>
<path d="M70.5636 19.5199L53.6984 57.2904C52.3304 60.454 50.7486 62.6984 48.953 64.0237C47.1575 65.349 44.9986 66.0116 42.4763 66.0116C40.8517 66.0116 39.3341 65.7551 37.9233 65.2421C36.5125 64.7291 35.2941 63.9596 34.2681 62.9335L36.3842 59.5348C38.0943 61.2449 40.1463 62.0999 42.5404 62.0999C44.0794 62.0999 45.3833 61.6724 46.4521 60.8174C47.5636 59.9623 48.5896 58.5088 49.5302 56.4568L51.0051 53.1863L35.9354 19.5199H40.6807L53.3777 48.1845L66.0748 19.5199H70.5636Z" fill="#F6F578"/>
</svg>
